<?xml version="1.0" encoding="UTF-8" standalone="no"?>
<!-- Created with Inkscape (http://www.inkscape.org/) -->

<svg
   width="1000"
   height="1000"
   viewBox="0 0 264.58333 264.58333"
   version="1.1"
   id="svg1"
   xml:space="preserve"
   inkscape:version="1.4.2 (f4327f4, 2025-05-13)"
   sodipodi:docname="lib_logo.svg"
   inkscape:export-filename="lib_logo.png"
   inkscape:export-xdpi="96"
   inkscape:export-ydpi="96"
   xmlns:inkscape="http://www.inkscape.org/namespaces/inkscape"
   xmlns:sodipodi="http://sodipodi.sourceforge.net/DTD/sodipodi-0.dtd"
   xmlns="http://www.w3.org/2000/svg"
   xmlns:svg="http://www.w3.org/2000/svg"><sodipodi:namedview
     id="namedview1"
     pagecolor="#ffffff"
     bordercolor="#000000"
     borderopacity="0.25"
     inkscape:showpageshadow="2"
     inkscape:pageopacity="0.0"
     inkscape:pagecheckerboard="0"
     inkscape:deskcolor="#d1d1d1"
     inkscape:document-units="mm"
     inkscape:zoom="0.71370863"
     inkscape:cx="648.02355"
     inkscape:cy="517.71828"
     inkscape:window-width="2560"
     inkscape:window-height="1351"
     inkscape:window-x="-9"
     inkscape:window-y="-9"
     inkscape:window-maximized="1"
     inkscape:current-layer="layer1" /><defs
     id="defs1" /><g
     inkscape:label="Layer 1"
     inkscape:groupmode="layer"
     id="layer1"><g
       id="g1"
       transform="matrix(1.2801466,0,0,1.2801466,-23.108146,-55.416963)"><path
         style="fill:#104e75;fill-opacity:1"
         d="m 56.972776,205.04624 c 0.700879,-0.88172 1.988701,-2.52507 2.861826,-3.65188 0.873125,-1.12682 2.580503,-3.31406 3.794174,-4.86054 1.21367,-1.54648 2.189423,-2.90946 2.168338,-3.02884 -0.03219,-0.18229 -3.274585,-4.17647 -3.720132,-4.58269 -11.728991,-10.69372 -18.199122,-40.61478 -12.987464,-60.06042 1.09967,-4.10306 1.524895,-5.42549 2.691015,-8.3689 1.081099,-2.72881 3.19763,-7.08549 4.482054,-9.22589 0.611277,-1.01864 1.30786,-2.19839 1.547963,-2.62167 0.240104,-0.42327 1.322901,-1.97108 2.406217,-3.43958 C 84.675468,72.050617 131.51329,65.211599 165.91984,89.771614 l 1.76333,1.258696 5.18319,-4.301405 c 13.17087,-10.930169 16.3056,-13.448054 15.0312,-12.073399 -2.04116,2.201738 -34.64629,34.892304 -34.79656,34.887734 -0.86345,-0.0263 -0.80234,-0.56434 0.50562,-4.45182 0.74013,-2.19978 1.34569,-4.09325 1.34569,-4.20771 0,-0.49627 -6.19262,-4.253768 -8.98814,-5.45374 l -1.71209,-0.734913 -0.66916,0.791775 c -0.36804,0.435477 -1.60573,1.915017 -2.75043,3.287867 l -2.08128,2.496091 -1.75518,-0.60565 c -2.26503,-0.78159 -6.85207,-1.965765 -7.61459,-1.965765 -0.8244,0 -0.90366,-0.182723 -1.9492,-4.493981 l -0.92945,-3.832523 -1.05493,-0.187125 c -1.56861,-0.278242 -9.78349,-0.255844 -10.53194,0.02872 -0.68689,0.261158 -0.91422,0.939676 -1.51305,4.516162 -0.58599,3.499834 -0.67146,3.644886 -2.34392,3.978178 -1.6086,0.320567 -1.77421,0.365597 -5.75191,1.563924 -3.35973,1.01215 -2.98087,1.07343 -4.41061,-0.713456 -0.6695,-0.836745 -1.907457,-2.277547 -2.751011,-3.201782 l -1.533736,-1.680428 -1.455208,0.673353 c -1.812903,0.838866 -4.508741,2.346461 -6.021479,3.367396 -0.63229,0.426727 -1.492214,0.953031 -1.910943,1.169565 -1.165703,0.602802 -1.153488,1.067242 0.128104,4.870892 1.469424,4.36112 1.493122,3.99548 -0.350907,5.41442 -0.847354,0.65203 -2.461104,2.16396 -3.586113,3.35985 -1.845996,1.9623 -2.102137,2.14646 -2.626545,1.88838 -0.319591,-0.15728 -1.474043,-0.58265 -2.56545,-0.94528 -1.091406,-0.36263 -2.676639,-0.90922 -3.522741,-1.21464 -1.828375,-0.66 -1.670075,-0.77813 -4.064593,3.03317 -4.107292,6.53747 -4.091507,6.4438 -1.476989,8.76496 1.126497,1.0001 2.516594,2.26187 3.089104,2.80392 l 1.040928,0.98556 -0.848954,2.71861 c -0.466924,1.49524 -0.997299,3.61062 -1.178611,4.70085 -0.22779,1.36971 -0.449905,1.99741 -0.718796,2.03132 -1.526835,0.19257 -7.110539,1.2363 -7.566774,1.41442 -1.049101,0.40958 -1.503559,8.12207 -0.663649,11.26261 0.200377,0.74924 5.195494,2.17341 7.770098,2.21535 0.531684,0.009 0.754941,0.16903 0.845128,0.60708 0.808336,3.92618 1.110776,5.1176 1.735266,6.83586 l 0.729509,2.00721 -3.149744,2.84916 c -2.631442,2.38031 -3.12208,2.94255 -2.981623,3.41674 0.591932,1.99841 5.413381,9.69572 6.073214,9.69572 0.22793,0 1.510548,-0.40382 2.850261,-0.89737 1.339713,-0.49356 3.077466,-1.10394 3.861673,-1.3564 l 1.425832,-0.45902 1.297319,1.38902 c 1.582809,1.69469 3.497636,-0.63833 -12.758626,15.54512 -13.725768,13.66429 -15.526017,15.35183 -13.037598,12.22135 z m 52.008174,-31.6849 c -1.02901,-0.0993 -1.02707,-0.0785 -0.21905,-2.34944 0.35246,-0.99059 1.23467,-3.64654 1.96046,-5.90211 2.57635,-8.00663 7.81185,-24.10486 11.50207,-35.36684 4.34552,-13.26186 3.19333,-11.72899 8.81616,-11.72899 4.2264,0 4.00386,-0.61713 1.9779,5.48504 -0.85849,2.58578 -2.23851,6.84454 -3.0667,9.46392 -2.4747,7.8269 -3.56825,11.24678 -4.39941,13.75833 -0.81741,2.46997 -2.11021,6.47539 -3.41591,10.58333 -2.13654,6.72188 -4.79351,14.89756 -5.04077,15.51083 -0.27774,0.68883 -4.02343,0.94083 -8.11475,0.54593 z m -6.94531,-9.87209 c -2.546613,-1.74837 -5.23893,-3.5575 -5.982925,-4.0203 -0.743994,-0.4628 -2.410869,-1.56679 -3.704166,-2.4533 -3.179799,-2.17966 -8.793416,-5.92412 -9.982759,-6.65881 l -0.967648,-0.59775 v -3.85292 c 0,-2.73674 0.09581,-3.94484 0.330729,-4.17021 0.181901,-0.1745 3.128698,-2.1859 6.548438,-4.46978 3.419739,-2.28388 6.515364,-4.39214 6.879166,-4.68503 0.363802,-0.29288 0.750968,-0.53516 0.86037,-0.53839 0.109401,-0.003 2.43112,-1.52932 5.159375,-3.3913 2.72825,-1.86198 5.10929,-3.47635 5.29119,-3.58749 0.26004,-0.15888 0.33073,0.86522 0.33073,4.79134 v 4.99342 l -2.84427,1.94213 c -1.56435,1.06816 -4.034895,2.73603 -5.490104,3.70635 -1.455208,0.97033 -3.345558,2.23191 -4.200778,2.80351 -0.855221,0.5716 -1.981419,1.29248 -2.502663,1.60195 -1.475288,0.8759 -1.653703,0.70321 5.732067,5.54825 1.49272,0.97922 3.737168,2.47838 6.395328,4.27172 l 3.04271,2.05277 0.0608,4.96094 c 0.0334,2.72852 -0.0261,4.95437 -0.13229,4.94634 -0.10619,-0.008 -2.27667,-1.44508 -4.82329,-3.19344 z"
         id="path1"
         sodipodi:nodetypes="ssssssssssscsscssscsscssscssssssscsssssssssssscssssscsscssssscssssssssssssssssssscsssscssscssssssccsss" /><path
         d="m 53.087727,218.94081 c 0,-1.08129 37.891218,-38.52507 38.415719,-37.96209 6.927848,7.43618 26.249644,11.72692 39.974674,8.87709 34.20946,-7.10318 49.3506,-47.98285 26.80501,-72.37102 -2.38086,-2.57543 -3.74079,-0.66162 10.47285,-14.73834 11.96366,-11.848414 17.14102,-16.85959 15.93569,-15.424158 -0.82264,0.979682 -11.64213,14.613648 -13.52829,17.047418 -2.78876,3.59841 -2.16355,3.75838 5.15652,1.31933 2.36608,-0.78838 4.45716,-1.43342 4.64684,-1.43342 0.60185,0 4.65648,6.20845 7.79825,11.94068 l 0.81646,1.48964 -1.10885,0.88752 c -1.15984,0.92834 -2.79196,2.40353 -5.76997,5.21519 l -1.77267,1.67365 0.86156,2.55968 c 0.47386,1.40783 1.13535,3.69614 1.46997,5.08514 l 0.6084,2.52546 3.73131,0.7512 c 8.7716,1.76592 7.89396,0.74852 7.8904,9.14684 -0.004,8.95177 0.78326,8.07643 -8.90117,9.8996 -2.94331,0.5541 -2.66356,0.3152 -3.20069,2.73333 -0.25062,1.1283 -0.90471,3.40988 -1.45353,5.0702 l -0.99786,3.01875 1.30911,1.25516 c 0.72001,0.69034 2.66366,2.42752 4.31921,3.86041 l 3.01011,2.60526 -1.00758,1.85208 c -2.5506,4.68842 -3.59392,6.4273 -5.21111,8.68527 -0.95614,1.33498 -1.83259,2.52794 -1.94767,2.65103 -0.17457,0.1867 -3.89844,-0.87652 -9.2033,-2.62768 -1.87147,-0.61777 -1.99323,-0.55422 -5.28164,2.75651 -1.7103,1.72191 -3.50289,3.41855 -3.98354,3.77031 l -0.87391,0.63956 0.91288,2.77813 c 1.87319,5.70061 2.29763,7.58651 1.80328,8.01258 -1.84082,1.58658 -10.82473,6.70525 -13.2563,7.5529 -0.78323,0.27304 -0.84877,0.23456 -1.86141,-1.0928 -0.57728,-0.7567 -2.22036,-2.61103 -3.6513,-4.12075 l -2.6017,-2.74494 -1.65387,0.60303 c -0.90963,0.33167 -3.40332,1.03111 -5.54153,1.55432 l -3.88765,0.95128 -0.72617,3.04271 c -0.39939,1.67349 -0.96406,4.04394 -1.25482,5.26767 -0.29076,1.22373 -0.5663,2.2626 -0.6123,2.30861 -0.33397,0.33396 -7.34956,0.6674 -11.03275,0.52436 -6.29842,-0.24461 -6.26103,-0.23509 -6.47299,-1.64855 -0.0957,-0.63793 -0.64291,-3.01966 -1.2161,-5.29274 -0.57319,-2.27309 -1.04216,-4.16875 -1.04216,-4.21259 0,-0.0438 -0.38695,-0.16011 -0.85989,-0.25838 -2.80528,-0.58285 -6.66468,-1.58193 -8.25606,-2.13724 l -1.83991,-0.64204 -2.893525,3.06167 c -1.591438,1.68392 -3.263791,3.52448 -3.716339,4.09013 -1.121339,1.40158 -5.425833,-0.31257 -12.334681,-4.91198 -3.382351,-2.25172 -3.238785,-2.00718 -2.515532,-4.28486 0.705559,-2.22196 0.689112,-2.2415 -0.77934,-0.92604 -0.60917,0.5457 -2.348891,2.01183 -3.866047,3.25805 -6.448865,5.29725 -14.335596,11.89744 -16.979818,14.20994 -1.564349,1.36811 -2.844271,2.40218 -2.844271,2.29793 z m 82.684183,-57.20517 0.002,-4.96023 1.32102,-0.84832 c 0.72656,-0.46657 1.61867,-1.07186 1.98248,-1.34507 0.98001,-0.73598 7.68474,-5.23711 10.66518,-7.15992 l 2.5954,-1.6744 -2.72769,-1.77505 c -1.50023,-0.97628 -2.90628,-1.86054 -3.12456,-1.96502 -0.21828,-0.10448 -2.71859,-1.77154 -5.55625,-3.70458 l -5.15938,-3.51463 -0.072,-4.94765 c -0.0396,-2.7212 0.004,-4.94765 0.0963,-4.94765 0.0926,0 4.64935,3.00118 10.12615,6.66928 5.47681,3.66811 11.17823,7.4847 12.66982,8.48132 l 2.71197,1.81204 v 3.96302 3.96302 l -0.99218,0.5766 c -0.89873,0.52228 -5.2032,3.40228 -10.35738,6.92982 -1.07627,0.7366 -2.13555,1.45834 -2.35397,1.60386 -5.81457,3.874 -11.7502,7.80504 -11.7843,7.8045 -0.0245,-3.9e-4 -0.0436,-2.23281 -0.0426,-4.96094 z"
         style="fill:#43474a;fill-opacity:1"
         id="path1-4" /></g></g></svg>
